<?xml version="1.0" encoding="UTF-8" standalone="no"?>
<!DOCTYPE svg PUBLIC "-//W3C//DTD SVG 1.1//EN"
 "http://www.w3.org/Graphics/SVG/1.1/DTD/svg11.dtd">
<!-- Generated by graphviz version 12.2.1 (0)
 -->
<!-- Title: FlakeInputs Pages: 1 -->
<svg width="1374pt" height="379pt"
 viewBox="0.00 0.00 1374.00 379.00" xmlns="http://www.w3.org/2000/svg" xmlns:xlink="http://www.w3.org/1999/xlink">
<g id="graph0" class="graph" transform="scale(1 1) rotate(0) translate(36 343)">
<title>FlakeInputs</title>
<polygon fill="#1a1b26" stroke="none" points="-36,36 -36,-343 1338,-343 1338,36 -36,36"/>
<g id="clust1" class="cluster">
<title>cluster_infra</title>
<polygon fill="#1a1b26" stroke="#bb9af7" stroke-dasharray="5,2" points="8,-98.5 8,-178 305,-178 305,-98.5 8,-98.5"/>
<text text-anchor="middle" x="156.5" y="-160.7" font-family="JetBrains Mono" font-size="14.00" fill="#bb9af7">Infrastructure</text>
</g>
<g id="clust2" class="cluster">
<title>cluster_system</title>
<polygon fill="#1a1b26" stroke="#f7768e" stroke-dasharray="5,2" points="423,-98.5 423,-178 717,-178 717,-98.5 423,-98.5"/>
<text text-anchor="middle" x="570" y="-160.7" font-family="JetBrains Mono" font-size="14.00" fill="#f7768e">System Config</text>
</g>
<g id="clust3" class="cluster">
<title>cluster_tools</title>
<polygon fill="#1a1b26" stroke="#9ece6a" stroke-dasharray="5,2" points="835,-98.5 835,-178 1151,-178 1151,-98.5 835,-98.5"/>
<text text-anchor="middle" x="993" y="-160.7" font-family="JetBrains Mono" font-size="14.00" fill="#9ece6a">Tools &amp; Theming</text>
</g>
<g id="clust4" class="cluster">
<title>cluster_browser</title>
<polygon fill="#1a1b26" stroke="#e0af68" stroke-dasharray="5,2" points="530,-219.25 530,-298.75 740,-298.75 740,-219.25 530,-219.25"/>
<text text-anchor="middle" x="635" y="-281.45" font-family="JetBrains Mono" font-size="14.00" fill="#e0af68">Browser</text>
</g>
<g id="clust5" class="cluster">
<title>cluster_sources</title>
<polygon fill="#1a1b26" stroke="#73daca" stroke-dasharray="5,2" points="760,-219 760,-299 1294,-299 1294,-219 760,-219"/>
<text text-anchor="middle" x="1027" y="-281.7" font-family="JetBrains Mono" font-size="14.00" fill="#73daca">Non&#45;Flake Sources</text>
</g>
<!-- nixpkgs -->
<g id="node1" class="node">
<title>nixpkgs</title>
<path fill="#7aa2f7" stroke="black" d="M657.75,-36.5C657.75,-36.5 598.25,-36.5 598.25,-36.5 592.25,-36.5 586.25,-30.5 586.25,-24.5 586.25,-24.5 586.25,-12 586.25,-12 586.25,-6 592.25,0 598.25,0 598.25,0 657.75,0 657.75,0 663.75,0 669.75,-6 669.75,-12 669.75,-12 669.75,-24.5 669.75,-24.5 669.75,-30.5 663.75,-36.5 657.75,-36.5"/>
<text text-anchor="middle" x="628" y="-23" font-family="JetBrains Mono" font-size="10.00" fill="#1a1b26">nixpkgs</text>
<text text-anchor="middle" x="628" y="-8.75" font-family="JetBrains Mono" font-size="10.00" fill="#1a1b26">(25.11&#45;darwin)</text>
</g>
<!-- flake_parts -->
<g id="node2" class="node">
<title>flake_parts</title>
<path fill="#24283b" stroke="black" d="M69.75,-142.5C69.75,-142.5 28.25,-142.5 28.25,-142.5 22.25,-142.5 16.25,-136.5 16.25,-130.5 16.25,-130.5 16.25,-118.5 16.25,-118.5 16.25,-112.5 22.25,-106.5 28.25,-106.5 28.25,-106.5 69.75,-106.5 69.75,-106.5 75.75,-106.5 81.75,-112.5 81.75,-118.5 81.75,-118.5 81.75,-130.5 81.75,-130.5 81.75,-136.5 75.75,-142.5 69.75,-142.5"/>
<text text-anchor="middle" x="49" y="-122.12" font-family="JetBrains Mono" font-size="10.00" fill="#a9b1d6">flake&#45;parts</text>
</g>
<!-- git_hooks -->
<g id="node3" class="node">
<title>git_hooks</title>
<path fill="#24283b" stroke="black" d="M180.62,-142.5C180.62,-142.5 129.38,-142.5 129.38,-142.5 123.38,-142.5 117.38,-136.5 117.38,-130.5 117.38,-130.5 117.38,-118.5 117.38,-118.5 117.38,-112.5 123.38,-106.5 129.38,-106.5 129.38,-106.5 180.62,-106.5 180.62,-106.5 186.62,-106.5 192.62,-112.5 192.62,-118.5 192.62,-118.5 192.62,-130.5 192.62,-130.5 192.62,-136.5 186.62,-142.5 180.62,-142.5"/>
<text text-anchor="middle" x="155" y="-122.12" font-family="JetBrains Mono" font-size="10.00" fill="#a9b1d6">git&#45;hooks.nix</text>
</g>
<!-- git_hooks&#45;&gt;nixpkgs -->
<g id="edge10" class="edge">
<title>git_hooks&#45;&gt;nixpkgs</title>
<path fill="none" stroke="#565f89" stroke-dasharray="5,2" d="M181.06,-106.1C202.37,-92.75 233.78,-75.04 263.75,-65.5 370.49,-31.53 502.31,-22.4 574.49,-20.02"/>
<polygon fill="#565f89" stroke="#565f89" points="574.57,-23.52 584.46,-19.73 574.37,-16.52 574.57,-23.52"/>
<text text-anchor="middle" x="276.88" y="-69.9" font-family="JetBrains Mono" font-size="8.00" fill="#565f89">follows</text>
</g>
<!-- treefmt -->
<g id="node4" class="node">
<title>treefmt</title>
<path fill="#24283b" stroke="black" d="M285.25,-142.5C285.25,-142.5 240.75,-142.5 240.75,-142.5 234.75,-142.5 228.75,-136.5 228.75,-130.5 228.75,-130.5 228.75,-118.5 228.75,-118.5 228.75,-112.5 234.75,-106.5 240.75,-106.5 240.75,-106.5 285.25,-106.5 285.25,-106.5 291.25,-106.5 297.25,-112.5 297.25,-118.5 297.25,-118.5 297.25,-130.5 297.25,-130.5 297.25,-136.5 291.25,-142.5 285.25,-142.5"/>
<text text-anchor="middle" x="263" y="-122.12" font-family="JetBrains Mono" font-size="10.00" fill="#a9b1d6">treefmt&#45;nix</text>
</g>
<!-- treefmt&#45;&gt;nixpkgs -->
<g id="edge11" class="edge">
<title>treefmt&#45;&gt;nixpkgs</title>
<path fill="none" stroke="#565f89" stroke-dasharray="5,2" d="M273.66,-106.03C282.82,-92.64 297.29,-74.91 314.75,-65.5 358.59,-41.87 497.3,-28.52 574.62,-22.74"/>
<polygon fill="#565f89" stroke="#565f89" points="574.8,-26.23 584.52,-22.01 574.29,-19.25 574.8,-26.23"/>
<text text-anchor="middle" x="327.88" y="-69.9" font-family="JetBrains Mono" font-size="8.00" fill="#565f89">follows</text>
</g>
<!-- nix_darwin -->
<g id="node5" class="node">
<title>nix_darwin</title>
<path fill="#24283b" stroke="black" d="M483,-142.5C483,-142.5 443,-142.5 443,-142.5 437,-142.5 431,-136.5 431,-130.5 431,-130.5 431,-118.5 431,-118.5 431,-112.5 437,-106.5 443,-106.5 443,-106.5 483,-106.5 483,-106.5 489,-106.5 495,-112.5 495,-118.5 495,-118.5 495,-130.5 495,-130.5 495,-136.5 489,-142.5 483,-142.5"/>
<text text-anchor="middle" x="463" y="-122.12" font-family="JetBrains Mono" font-size="10.00" fill="#a9b1d6">nix&#45;darwin</text>
</g>
<!-- nix_darwin&#45;&gt;nixpkgs -->
<g id="edge1" class="edge">
<title>nix_darwin&#45;&gt;nixpkgs</title>
<path fill="none" stroke="#565f89" stroke-dasharray="5,2" d="M488.53,-106.19C505.93,-94.5 529.58,-78.83 550.75,-65.5 562.74,-57.95 575.92,-49.95 587.95,-42.77"/>
<polygon fill="#565f89" stroke="#565f89" points="589.62,-45.85 596.43,-37.73 586.04,-39.83 589.62,-45.85"/>
<text text-anchor="middle" x="563.88" y="-69.9" font-family="JetBrains Mono" font-size="8.00" fill="#565f89">follows</text>
</g>
<!-- home_manager -->
<g id="node6" class="node">
<title>home_manager</title>
<path fill="#24283b" stroke="black" d="M607,-142.5C607,-142.5 543,-142.5 543,-142.5 537,-142.5 531,-136.5 531,-130.5 531,-130.5 531,-118.5 531,-118.5 531,-112.5 537,-106.5 543,-106.5 543,-106.5 607,-106.5 607,-106.5 613,-106.5 619,-112.5 619,-118.5 619,-118.5 619,-130.5 619,-130.5 619,-136.5 613,-142.5 607,-142.5"/>
<text text-anchor="middle" x="575" y="-122.12" font-family="JetBrains Mono" font-size="10.00" fill="#a9b1d6">home&#45;manager</text>
</g>
<!-- home_manager&#45;&gt;nixpkgs -->
<g id="edge2" class="edge">
<title>home_manager&#45;&gt;nixpkgs</title>
<path fill="none" stroke="#565f89" stroke-dasharray="5,2" d="M577.78,-106.07C580.14,-94.18 584.21,-78.33 590.75,-65.5 594.27,-58.59 598.95,-51.74 603.78,-45.52"/>
<polygon fill="#565f89" stroke="#565f89" points="606.25,-48.03 609.92,-38.09 600.85,-43.58 606.25,-48.03"/>
<text text-anchor="middle" x="603.88" y="-69.9" font-family="JetBrains Mono" font-size="8.00" fill="#565f89">follows</text>
</g>
<!-- sops_nix -->
<g id="node7" class="node">
<title>sops_nix</title>
<path fill="#24283b" stroke="black" d="M697,-142.5C697,-142.5 667,-142.5 667,-142.5 661,-142.5 655,-136.5 655,-130.5 655,-130.5 655,-118.5 655,-118.5 655,-112.5 661,-106.5 667,-106.5 667,-106.5 697,-106.5 697,-106.5 703,-106.5 709,-112.5 709,-118.5 709,-118.5 709,-130.5 709,-130.5 709,-136.5 703,-142.5 697,-142.5"/>
<text text-anchor="middle" x="682" y="-122.12" font-family="JetBrains Mono" font-size="10.00" fill="#a9b1d6">sops&#45;nix</text>
</g>
<!-- sops_nix&#45;&gt;nixpkgs -->
<g id="edge3" class="edge">
<title>sops_nix&#45;&gt;nixpkgs</title>
<path fill="none" stroke="#565f89" stroke-dasharray="5,2" d="M673.08,-106.29C664.73,-90.16 652.1,-65.79 642.34,-46.93"/>
<polygon fill="#565f89" stroke="#565f89" points="645.51,-45.45 637.81,-38.18 639.3,-48.67 645.51,-45.45"/>
<text text-anchor="middle" x="669.74" y="-69.9" font-family="JetBrains Mono" font-size="8.00" fill="#565f89">follows</text>
</g>
<!-- rust_overlay -->
<g id="node8" class="node">
<title>rust_overlay</title>
<path fill="#24283b" stroke="black" d="M903.12,-142.5C903.12,-142.5 854.88,-142.5 854.88,-142.5 848.88,-142.5 842.88,-136.5 842.88,-130.5 842.88,-130.5 842.88,-118.5 842.88,-118.5 842.88,-112.5 848.88,-106.5 854.88,-106.5 854.88,-106.5 903.12,-106.5 903.12,-106.5 909.12,-106.5 915.12,-112.5 915.12,-118.5 915.12,-118.5 915.12,-130.5 915.12,-130.5 915.12,-136.5 909.12,-142.5 903.12,-142.5"/>
<text text-anchor="middle" x="879" y="-122.12" font-family="JetBrains Mono" font-size="10.00" fill="#a9b1d6">rust&#45;overlay</text>
</g>
<!-- rust_overlay&#45;&gt;nixpkgs -->
<g id="edge4" class="edge">
<title>rust_overlay&#45;&gt;nixpkgs</title>
<path fill="none" stroke="#565f89" stroke-dasharray="5,2" d="M862.43,-106.1C849.14,-93.11 829.39,-75.89 809,-65.5 768.66,-44.96 718.51,-33.07 681.24,-26.5"/>
<polygon fill="#565f89" stroke="#565f89" points="682.04,-23.09 671.6,-24.88 680.88,-29.99 682.04,-23.09"/>
<text text-anchor="middle" x="841.18" y="-69.9" font-family="JetBrains Mono" font-size="8.00" fill="#565f89">follows</text>
</g>
<!-- stylix -->
<g id="node9" class="node">
<title>stylix</title>
<path fill="#24283b" stroke="black" d="M993,-142.5C993,-142.5 963,-142.5 963,-142.5 957,-142.5 951,-136.5 951,-130.5 951,-130.5 951,-118.5 951,-118.5 951,-112.5 957,-106.5 963,-106.5 963,-106.5 993,-106.5 993,-106.5 999,-106.5 1005,-112.5 1005,-118.5 1005,-118.5 1005,-130.5 1005,-130.5 1005,-136.5 999,-142.5 993,-142.5"/>
<text text-anchor="middle" x="978" y="-122.12" font-family="JetBrains Mono" font-size="10.00" fill="#a9b1d6">stylix</text>
</g>
<!-- stylix&#45;&gt;nixpkgs -->
<g id="edge5" class="edge">
<title>stylix&#45;&gt;nixpkgs</title>
<path fill="none" stroke="#565f89" stroke-dasharray="5,2" d="M950.65,-106.76C927.96,-93.6 894.44,-75.83 863,-65.5 802.11,-45.49 729.35,-32.81 681.08,-25.89"/>
<polygon fill="#565f89" stroke="#565f89" points="681.86,-22.46 671.47,-24.54 680.89,-29.39 681.86,-22.46"/>
<text text-anchor="middle" x="905.71" y="-69.9" font-family="JetBrains Mono" font-size="8.00" fill="#565f89">follows</text>
</g>
<!-- nix_index -->
<g id="node10" class="node">
<title>nix_index</title>
<path fill="#24283b" stroke="black" d="M1131.12,-142.5C1131.12,-142.5 1052.88,-142.5 1052.88,-142.5 1046.88,-142.5 1040.88,-136.5 1040.88,-130.5 1040.88,-130.5 1040.88,-118.5 1040.88,-118.5 1040.88,-112.5 1046.88,-106.5 1052.88,-106.5 1052.88,-106.5 1131.12,-106.5 1131.12,-106.5 1137.12,-106.5 1143.12,-112.5 1143.12,-118.5 1143.12,-118.5 1143.12,-130.5 1143.12,-130.5 1143.12,-136.5 1137.12,-142.5 1131.12,-142.5"/>
<text text-anchor="middle" x="1092" y="-122.12" font-family="JetBrains Mono" font-size="10.00" fill="#a9b1d6">nix&#45;index&#45;database</text>
</g>
<!-- nix_index&#45;&gt;nixpkgs -->
<g id="edge6" class="edge">
<title>nix_index&#45;&gt;nixpkgs</title>
<path fill="none" stroke="#565f89" stroke-dasharray="5,2" d="M1044.15,-106.07C1037.06,-103.52 1029.84,-100.93 1023,-98.5 980.88,-83.55 971.38,-76.28 928,-65.5 842.96,-44.36 741.82,-31.17 681.38,-24.52"/>
<polygon fill="#565f89" stroke="#565f89" points="682.04,-21.07 671.72,-23.48 681.29,-28.03 682.04,-21.07"/>
<text text-anchor="middle" x="981.17" y="-69.9" font-family="JetBrains Mono" font-size="8.00" fill="#565f89">follows</text>
</g>
<!-- zen_browser -->
<g id="node11" class="node">
<title>zen_browser</title>
<path fill="#24283b" stroke="black" d="M599.88,-263.25C599.88,-263.25 550.12,-263.25 550.12,-263.25 544.12,-263.25 538.12,-257.25 538.12,-251.25 538.12,-251.25 538.12,-239.25 538.12,-239.25 538.12,-233.25 544.12,-227.25 550.12,-227.25 550.12,-227.25 599.88,-227.25 599.88,-227.25 605.88,-227.25 611.88,-233.25 611.88,-239.25 611.88,-239.25 611.88,-251.25 611.88,-251.25 611.88,-257.25 605.88,-263.25 599.88,-263.25"/>
<text text-anchor="middle" x="575" y="-242.88" font-family="JetBrains Mono" font-size="10.00" fill="#a9b1d6">zen&#45;browser</text>
</g>
<!-- zen_browser&#45;&gt;nixpkgs -->
<g id="edge7" class="edge">
<title>zen_browser&#45;&gt;nixpkgs</title>
<path fill="none" stroke="#565f89" stroke-dasharray="5,2" d="M537.65,-243.08C493.48,-239.46 421.69,-226.01 387.75,-178 367.35,-149.15 367.05,-127.13 387.75,-98.5 430.25,-39.73 517.88,-23.81 574.74,-19.9"/>
<polygon fill="#565f89" stroke="#565f89" points="574.73,-23.41 584.51,-19.34 574.33,-16.42 574.73,-23.41"/>
<text text-anchor="middle" x="400.88" y="-122.9" font-family="JetBrains Mono" font-size="8.00" fill="#565f89">follows</text>
</g>
<!-- zen_browser&#45;&gt;home_manager -->
<g id="edge8" class="edge">
<title>zen_browser&#45;&gt;home_manager</title>
<path fill="none" stroke="#565f89" stroke-dasharray="5,2" d="M575,-226.98C575,-207.9 575,-176.86 575,-154.12"/>
<polygon fill="#565f89" stroke="#565f89" points="578.5,-154.3 575,-144.3 571.5,-154.3 578.5,-154.3"/>
<text text-anchor="middle" x="588.12" y="-190.4" font-family="JetBrains Mono" font-size="8.00" fill="#565f89">follows</text>
</g>
<!-- firefox_addons -->
<g id="node12" class="node">
<title>firefox_addons</title>
<path fill="#24283b" stroke="black" d="M719.75,-263.25C719.75,-263.25 660.25,-263.25 660.25,-263.25 654.25,-263.25 648.25,-257.25 648.25,-251.25 648.25,-251.25 648.25,-239.25 648.25,-239.25 648.25,-233.25 654.25,-227.25 660.25,-227.25 660.25,-227.25 719.75,-227.25 719.75,-227.25 725.75,-227.25 731.75,-233.25 731.75,-239.25 731.75,-239.25 731.75,-251.25 731.75,-251.25 731.75,-257.25 725.75,-263.25 719.75,-263.25"/>
<text text-anchor="middle" x="690" y="-242.88" font-family="JetBrains Mono" font-size="10.00" fill="#a9b1d6">firefox&#45;addons</text>
</g>
<!-- firefox_addons&#45;&gt;nixpkgs -->
<g id="edge9" class="edge">
<title>firefox_addons&#45;&gt;nixpkgs</title>
<path fill="none" stroke="#565f89" stroke-dasharray="5,2" d="M702.51,-226.98C710.99,-214.17 721.45,-195.89 726,-178 734.7,-143.76 739.76,-131.04 726,-98.5 715.92,-74.67 694.24,-55.94 673.82,-42.69"/>
<polygon fill="#565f89" stroke="#565f89" points="675.91,-39.86 665.56,-37.6 672.24,-45.82 675.91,-39.86"/>
<text text-anchor="middle" x="747.65" y="-122.9" font-family="JetBrains Mono" font-size="8.00" fill="#565f89">follows</text>
</g>
<!-- agent_browser -->
<g id="node13" class="node">
<title>agent_browser</title>
<path fill="#414868" stroke="black" stroke-dasharray="5,2" d="M840.12,-263.5C840.12,-263.5 779.88,-263.5 779.88,-263.5 773.88,-263.5 767.88,-257.5 767.88,-251.5 767.88,-251.5 767.88,-239 767.88,-239 767.88,-233 773.88,-227 779.88,-227 779.88,-227 840.12,-227 840.12,-227 846.12,-227 852.12,-233 852.12,-239 852.12,-239 852.12,-251.5 852.12,-251.5 852.12,-257.5 846.12,-263.5 840.12,-263.5"/>
<text text-anchor="middle" x="810" y="-250" font-family="JetBrains Mono" font-size="10.00" fill="#a9b1d6">agent&#45;browser</text>
<text text-anchor="middle" x="810" y="-235.75" font-family="JetBrains Mono" font-size="10.00" fill="#a9b1d6">(source)</text>
</g>
<!-- skill_react -->
<g id="node14" class="node">
<title>skill_react</title>
<path fill="#414868" stroke="black" stroke-dasharray="5,2" d="M1001.75,-263.5C1001.75,-263.5 900.25,-263.5 900.25,-263.5 894.25,-263.5 888.25,-257.5 888.25,-251.5 888.25,-251.5 888.25,-239 888.25,-239 888.25,-233 894.25,-227 900.25,-227 900.25,-227 1001.75,-227 1001.75,-227 1007.75,-227 1013.75,-233 1013.75,-239 1013.75,-239 1013.75,-251.5 1013.75,-251.5 1013.75,-257.5 1007.75,-263.5 1001.75,-263.5"/>
<text text-anchor="middle" x="951" y="-250" font-family="JetBrains Mono" font-size="10.00" fill="#a9b1d6">skill&#45;react&#45;best&#45;practices</text>
<text text-anchor="middle" x="951" y="-235.75" font-family="JetBrains Mono" font-size="10.00" fill="#a9b1d6">(source)</text>
</g>
<!-- opencode_notify -->
<g id="node15" class="node">
<title>opencode_notify</title>
<path fill="#414868" stroke="black" stroke-dasharray="5,2" d="M1130.25,-263.5C1130.25,-263.5 1061.75,-263.5 1061.75,-263.5 1055.75,-263.5 1049.75,-257.5 1049.75,-251.5 1049.75,-251.5 1049.75,-239 1049.75,-239 1049.75,-233 1055.75,-227 1061.75,-227 1061.75,-227 1130.25,-227 1130.25,-227 1136.25,-227 1142.25,-233 1142.25,-239 1142.25,-239 1142.25,-251.5 1142.25,-251.5 1142.25,-257.5 1136.25,-263.5 1130.25,-263.5"/>
<text text-anchor="middle" x="1096" y="-250" font-family="JetBrains Mono" font-size="10.00" fill="#a9b1d6">opencode&#45;notify</text>
<text text-anchor="middle" x="1096" y="-235.75" font-family="JetBrains Mono" font-size="10.00" fill="#a9b1d6">(source)</text>
</g>
<!-- opencode_mystatus -->
<g id="node16" class="node">
<title>opencode_mystatus</title>
<path fill="#414868" stroke="black" stroke-dasharray="5,2" d="M1273.75,-263.5C1273.75,-263.5 1190.25,-263.5 1190.25,-263.5 1184.25,-263.5 1178.25,-257.5 1178.25,-251.5 1178.25,-251.5 1178.25,-239 1178.25,-239 1178.25,-233 1184.25,-227 1190.25,-227 1190.25,-227 1273.75,-227 1273.75,-227 1279.75,-227 1285.75,-233 1285.75,-239 1285.75,-239 1285.75,-251.5 1285.75,-251.5 1285.75,-257.5 1279.75,-263.5 1273.75,-263.5"/>
<text text-anchor="middle" x="1232" y="-250" font-family="JetBrains Mono" font-size="10.00" fill="#a9b1d6">opencode&#45;mystatus</text>
<text text-anchor="middle" x="1232" y="-235.75" font-family="JetBrains Mono" font-size="10.00" fill="#a9b1d6">(source)</text>
</g>
</g>
</svg>
